<svg xmlns="http://www.w3.org/2000/svg" viewBox="0 0 108 108">
  <rect width="108" height="108" rx="22" fill="#006F3C"/>
  <g fill="#fff">
    <path d="M32,64C32,64 38.39,52.99 44.13,50.95C51.37,48.37 66.26,36.6 67.5,26.5C67.5,26.5 80.24,42.67 75.85,62.35C75.85,62.35 86.5,78.5 86.5,88.5C86.5,98.5 74,92.5 68,88.5C62,84.5 56,86.5 48,88.5C40,90.5 30,92 28,82C26,72 32,64 32,64Z"/>
    <path d="M34.9,86.17C25.7,73.53 28.24,56.26 39.16,48.85C39.16,48.85 33.7,61.17 36.2,69.62C36.2,69.62 40.96,63.08 44.41,62.1C44.41,62.1 38.2,71.46 43.01,82.18C43.01,82.18 50.29,71.06 59.97,68.66C59.97,68.66 51.2,75.85 51.2,82.18C51.2,88.5 58.96,87.96 64.26,86.61C64.26,86.61 55.36,97.09 42.51,97.09C34.51,97.09 34.9,86.17 34.9,86.17Z"/>
  </g>
</svg>
